<svg width="24" height="21" viewBox="0 0 24 21" fill="none" xmlns="http://www.w3.org/2000/svg">
<mask id="path-1-inside-1_1374_1383" fill="white">
<path d="M21.567 18.6784L18.913 16.0244L17.7475 14.8589L15.4973 12.6087L14.978 12.0895L14.5742 11.6856L13.8934 11.0048L10.9393 8.0507L9.93536 7.04678L8.14677 5.25818L6.94668 4.05809L3.4618 0.561677L3.30025 0.400126C3.06946 0.180879 2.7579 0.0308677 2.49249 0.00778905C2.20401 -0.0268289 1.92707 0.0539464 1.74244 0.250115C1.3501 0.642452 1.41934 1.33481 1.89245 1.80792L2.054 1.96948L5.10038 5.0274H5.08884C5.08884 5.0274 5.04269 5.07355 5.00807 5.08509C4.67343 5.30434 4.33879 5.52359 4.01569 5.76591C2.48096 6.91985 1.22317 8.32765 0.184629 9.95469C0.0576966 10.1509 0 10.3355 0 10.5201H0C0 10.7047 0.0576966 10.8894 0.184629 11.0855C2.1117 14.0512 4.62727 16.3129 8.03137 17.386C8.08907 17.4091 8.14677 17.4091 8.20446 17.4322C9.11607 17.7322 10.0392 17.9053 10.9854 17.9861C11.0431 17.9861 11.0893 17.9976 11.147 17.9976C11.4355 18.0207 11.7124 18.0207 12.0009 18.0091C12.2894 18.0091 12.5779 18.0091 12.8548 17.9976C12.9125 17.9976 12.9587 17.9861 13.0164 17.9861C13.9626 17.9168 14.8857 17.7322 15.7973 17.4322C15.855 17.4091 15.9127 17.4091 15.9704 17.386C16.3397 17.2706 16.6859 17.1206 17.032 16.9706L20.1477 20.0862L20.2284 20.167C20.7131 20.6516 21.417 20.7093 21.7978 20.317C21.9709 20.1439 22.0632 19.867 22.0517 19.5554C22.0055 19.2323 21.867 18.9669 21.6478 18.7707L21.567 18.69V18.6784ZM9.5661 9.49312L11.9317 11.8587L13.0625 12.978C12.7394 13.1165 12.4048 13.2088 12.024 13.2088C10.5469 13.2088 9.33532 11.9856 9.34686 10.5086C9.34686 10.1509 9.43917 9.81622 9.57764 9.49312H9.5661ZM13.7087 16.359C13.1548 16.4398 12.5894 16.486 12.0009 16.4975C11.4124 16.4975 10.847 16.4398 10.2931 16.359C8.216 16.0359 6.31201 15.1243 4.59265 13.7165C3.5195 12.8395 2.59635 11.8241 1.80014 10.6817C1.7309 10.5778 1.68474 10.5086 1.77706 10.3701C2.80406 8.91615 3.99261 7.64683 5.40041 6.66598C5.42348 6.6429 5.44656 6.63136 5.48118 6.60829C5.72351 6.44673 5.96583 6.29672 6.2197 6.14671L8.52756 8.45458C8.16984 9.05462 7.9506 9.75852 7.9506 10.5201C7.9506 12.7587 9.78535 14.582 12.024 14.582C12.774 14.582 13.4664 14.3743 14.0664 14.0165L15.832 15.7821C15.1396 16.0475 14.4242 16.2436 13.6972 16.359H13.7087Z"/>
</mask>
<path d="M21.567 18.6784L18.913 16.0244L17.7475 14.8589L15.4973 12.6087L14.978 12.0895L14.5742 11.6856L13.8934 11.0048L10.9393 8.0507L9.93536 7.04678L8.14677 5.25818L6.94668 4.05809L3.4618 0.561677L3.30025 0.400126C3.06946 0.180879 2.7579 0.0308677 2.49249 0.00778905C2.20401 -0.0268289 1.92707 0.0539464 1.74244 0.250115C1.3501 0.642452 1.41934 1.33481 1.89245 1.80792L2.054 1.96948L5.10038 5.0274H5.08884C5.08884 5.0274 5.04269 5.07355 5.00807 5.08509C4.67343 5.30434 4.33879 5.52359 4.01569 5.76591C2.48096 6.91985 1.22317 8.32765 0.184629 9.95469C0.0576966 10.1509 0 10.3355 0 10.5201H0C0 10.7047 0.0576966 10.8894 0.184629 11.0855C2.1117 14.0512 4.62727 16.3129 8.03137 17.386C8.08907 17.4091 8.14677 17.4091 8.20446 17.4322C9.11607 17.7322 10.0392 17.9053 10.9854 17.9861C11.0431 17.9861 11.0893 17.9976 11.147 17.9976C11.4355 18.0207 11.7124 18.0207 12.0009 18.0091C12.2894 18.0091 12.5779 18.0091 12.8548 17.9976C12.9125 17.9976 12.9587 17.9861 13.0164 17.9861C13.9626 17.9168 14.8857 17.7322 15.7973 17.4322C15.855 17.4091 15.9127 17.4091 15.9704 17.386C16.3397 17.2706 16.6859 17.1206 17.032 16.9706L20.1477 20.0862L20.2284 20.167C20.7131 20.6516 21.417 20.7093 21.7978 20.317C21.9709 20.1439 22.0632 19.867 22.0517 19.5554C22.0055 19.2323 21.867 18.9669 21.6478 18.7707L21.567 18.69V18.6784ZM9.5661 9.49312L11.9317 11.8587L13.0625 12.978C12.7394 13.1165 12.4048 13.2088 12.024 13.2088C10.5469 13.2088 9.33532 11.9856 9.34686 10.5086C9.34686 10.1509 9.43917 9.81622 9.57764 9.49312H9.5661ZM13.7087 16.359C13.1548 16.4398 12.5894 16.486 12.0009 16.4975C11.4124 16.4975 10.847 16.4398 10.2931 16.359C8.216 16.0359 6.31201 15.1243 4.59265 13.7165C3.5195 12.8395 2.59635 11.8241 1.80014 10.6817C1.7309 10.5778 1.68474 10.5086 1.77706 10.3701C2.80406 8.91615 3.99261 7.64683 5.40041 6.66598C5.42348 6.6429 5.44656 6.63136 5.48118 6.60829C5.72351 6.44673 5.96583 6.29672 6.2197 6.14671L8.52756 8.45458C8.16984 9.05462 7.9506 9.75852 7.9506 10.5201C7.9506 12.7587 9.78535 14.582 12.024 14.582C12.774 14.582 13.4664 14.3743 14.0664 14.0165L15.832 15.7821C15.1396 16.0475 14.4242 16.2436 13.6972 16.359H13.7087Z" fill="#1F1F1F" stroke="#493D7E" stroke-width="2" mask="url(#path-1-inside-1_1374_1383)"/>
<mask id="path-2-inside-2_1374_1383" fill="white">
<path d="M14.6675 9.98837L16.0061 11.3269C16.0638 11.0615 16.0869 10.7846 16.0869 10.5076C16.0869 8.26902 14.2521 6.4458 12.0135 6.4458C11.7366 6.4458 11.4596 6.48042 11.2057 6.52658L12.5559 7.87668C13.6175 8.08439 14.4598 8.92676 14.6675 9.98837Z"/>
</mask>
<path d="M14.6675 9.98837L16.0061 11.3269C16.0638 11.0615 16.0869 10.7846 16.0869 10.5076C16.0869 8.26902 14.2521 6.4458 12.0135 6.4458C11.7366 6.4458 11.4596 6.48042 11.2057 6.52658L12.5559 7.87668C13.6175 8.08439 14.4598 8.92676 14.6675 9.98837Z" fill="#1F1F1F" stroke="#493D7E" stroke-width="2" mask="url(#path-2-inside-2_1374_1383)"/>
<path d="M23.8154 9.9529C22.7769 8.33739 21.5191 6.91805 19.9843 5.76412C19.6612 5.5218 19.3266 5.30255 18.992 5.0833C18.9689 5.07176 18.9458 5.04868 18.9112 5.0256C16.7649 3.66396 14.457 2.9716 11.9991 3.00622C10.7067 2.98314 9.44893 3.17931 8.24884 3.56011L9.52971 4.84097C10.3605 4.64481 11.1914 4.52941 12.0107 4.52941C13.2223 4.54095 14.457 4.7602 15.7148 5.19869C16.3725 5.42948 16.9957 5.71796 17.5842 6.04106C17.6303 6.06414 17.6765 6.08722 17.7226 6.1103C17.9996 6.27185 18.265 6.4334 18.5188 6.61803C18.5419 6.62957 18.565 6.65265 18.5996 6.67573C20.0074 7.65657 21.196 8.91436 22.223 10.3799C22.3153 10.5068 22.2807 10.5876 22.1999 10.6914C21.4037 11.8338 20.4805 12.8493 19.4074 13.7263C19.2112 13.8878 19.015 14.0032 18.8189 14.1532L19.9728 15.3071C21.4729 14.1763 22.7422 12.7454 23.8154 11.0953C23.9423 10.8991 24 10.7145 24 10.5414C24 10.3568 23.9423 10.1721 23.8154 9.97598V9.9529Z" fill="#1F1F1F"/>
</svg>
