<svg width="206" height="44" viewBox="0 0 206 44" fill="none" xmlns="http://www.w3.org/2000/svg">
<path d="M35.9104 16.8473H31.3062C30.8619 16.8473 30.5034 16.4909 30.5034 16.0491C30.5034 15.6074 30.8619 15.251 31.3062 15.251H35.9104C36.3547 15.251 36.7131 15.6074 36.7131 16.0491C36.7131 16.4909 36.3547 16.8473 35.9104 16.8473Z" fill="white"/>
<path fill-rule="evenodd" clip-rule="evenodd" d="M33.6083 4.564C39.9744 4.564 45.1542 9.71423 45.1542 16.0491C45.1542 20.2255 42.8773 24.0606 39.1919 26.0986C39.2172 26.4701 39.2273 26.7913 39.2273 27.0774C39.2273 27.5041 39.2071 27.9509 39.1667 28.4478C38.4649 36.6049 31.4576 43 23.2134 43H8.26986C7.70948 43 7.25005 42.5432 7.25005 41.986L7.2551 28.4278C7.21474 27.9509 7.19452 27.4991 7.19452 27.0724C7.19452 26.8214 7.20463 26.5504 7.22478 26.2241C3.38288 24.2313 1 20.346 1 16.0491C1 11.0043 4.37742 6.51165 9.22909 5.05593V2.01398C9.22909 1.4568 9.6834 1 10.2539 1C10.8143 1 11.2737 1.4568 11.2737 2.01398V4.64432C11.3595 4.63428 11.4453 4.62424 11.5312 4.61922V2.01398C11.5312 1.4568 11.9906 1 12.551 1C13.1114 1 13.5708 1.4568 13.5708 2.019V5.583C13.5708 6.14019 13.1114 6.59699 12.551 6.59699C7.31063 6.59699 3.04467 10.8387 3.04467 16.0491C3.04467 21.2646 7.31063 25.5063 12.551 25.5063C17.7913 25.5063 22.0573 21.2646 22.0573 16.0491C22.0573 9.71423 27.2421 4.564 33.6083 4.564ZM43.1146 16.0441C43.1146 10.8336 38.8486 6.59197 33.6083 6.59197C28.3629 6.59197 24.0969 10.8336 24.102 16.0441C24.102 21.2596 28.3679 25.5013 33.6083 25.5013C38.8486 25.5013 43.1146 21.2596 43.1146 16.0441ZM9.29472 28.3424V29.9086C15.2721 30.3202 19.9622 35.0237 20.3257 40.967H23.2134C30.4075 40.967 36.5213 35.3901 37.1321 28.2721C37.1675 27.8404 37.1877 27.4439 37.1877 27.0724V26.957C36.0164 27.3385 34.8098 27.5342 33.6083 27.5342C31.1749 27.5342 28.8476 26.7763 26.8635 25.3507L23.8798 29.1205C23.4911 29.6124 22.6632 29.6124 22.2744 29.1205L19.2907 25.3507C17.3067 26.7813 14.9793 27.5342 12.5459 27.5342C11.4302 27.5342 10.3145 27.3736 9.23414 27.0473V27.0724C9.23414 27.4489 9.25429 27.8404 9.29472 28.3424ZM23.0771 20.7476C22.5268 21.9724 21.7797 23.0717 20.8457 24.0305L23.0771 26.8516L25.3086 24.0305C24.3797 23.0767 23.6274 21.9724 23.0771 20.7476ZM18.281 40.967C17.9226 36.1682 14.116 32.3431 9.29472 31.9416V40.967H18.281Z" fill="white"/>
<path d="M119.478 7.94729H121.755V25.2603C121.755 26.9469 122.25 27.6497 123.699 27.6497C124.067 27.6497 124.471 27.6497 124.81 27.5895V29.5221C124.441 29.7379 123.886 29.768 123.391 29.768C121.851 29.768 119.478 29.4016 119.478 25.4159V7.94729Z" fill="white"/>
<path fill-rule="evenodd" clip-rule="evenodd" d="M67.9129 33.9344C69.4527 33.9344 70.8107 33.5679 71.7649 32.7999C73.1835 31.6354 73.3652 29.7028 73.3652 28.0212V26.7361C72.5928 28.0563 70.9016 29.4919 67.8473 29.4919C63.5005 29.4919 59.9867 26.1237 59.9867 21.4654C59.9867 16.8071 63.5005 13.4037 67.8473 13.4037C70.8965 13.4037 72.5928 14.8444 73.3652 16.1596V13.8605H75.6472V26.7311C75.6472 30.0692 75.4907 32.6142 73.1835 34.4213C71.8608 35.4654 69.9777 36.0477 67.9432 36.0477C65.1715 36.0477 62.7028 35.2194 60.5774 33.6884L61.7486 31.8813C63.5358 33.1664 65.3886 33.9344 67.9129 33.9344ZM67.8523 27.3786C71.1793 27.3786 73.648 24.8638 73.648 21.4654C73.648 18.067 71.1843 15.5221 67.8523 15.5221C64.6465 15.5221 62.2737 18.067 62.2737 21.4654C62.2737 24.8638 64.6465 27.3786 67.8523 27.3786Z" fill="white"/>
<path fill-rule="evenodd" clip-rule="evenodd" d="M87.4859 13.8605C91.7923 13.8605 95.2808 17.1284 95.2808 21.5809C95.2808 26.0333 91.7923 29.3012 87.4859 29.3012C83.1796 29.3012 79.691 26.0333 79.691 21.5809C79.686 17.1284 83.1796 13.8605 87.4859 13.8605ZM87.4859 27.3134C90.7422 27.3134 93.1301 24.8537 93.1301 21.5859C93.1301 18.318 90.7422 15.8584 87.4859 15.8584C84.2296 15.8584 81.8417 18.318 81.8417 21.5859C81.8417 24.8537 84.2246 27.3134 87.4859 27.3134Z" fill="white"/>
<path fill-rule="evenodd" clip-rule="evenodd" d="M112.017 16.1596C111.244 14.8444 109.548 13.4037 106.499 13.4037C102.157 13.4037 98.6431 16.8673 98.6381 21.5859C98.6381 26.3044 102.152 29.768 106.499 29.768C109.487 29.768 111.244 28.4227 112.138 27.0423C112.264 28.242 112.693 28.8845 113.188 29.251C113.713 29.6174 114.329 29.6777 114.824 29.6777C115.318 29.6777 115.778 29.6475 116.273 29.4317V27.715C116.055 27.7451 115.687 27.7752 115.47 27.7752C114.607 27.7752 114.299 27.1929 114.299 25.8426V13.8605H112.017V16.1596ZM112.294 21.5809C112.294 25.0445 109.826 27.6497 106.499 27.6497C103.293 27.6497 100.92 25.0495 100.92 21.5809C100.92 18.1172 103.293 15.512 106.499 15.512C109.831 15.512 112.294 18.1172 112.294 21.5809Z" fill="white"/>
<path d="M132.64 27.5593C130.666 27.5593 129.247 26.5805 128.631 25.0796L126.693 25.8677C127.586 28.4127 129.898 29.6676 132.67 29.6676C136.335 29.6676 138.249 27.8906 138.249 25.2854C138.249 22.5898 136.643 21.4252 133.346 20.2305C131.463 19.5278 130.141 19.0057 130.141 17.5651C130.141 16.4607 131.065 15.4819 132.761 15.4819C133.932 15.4819 135.007 16.1545 135.533 17.2288L137.289 16.1244C136.36 14.4428 134.7 13.3987 132.695 13.3987C129.833 13.3987 127.859 15.1456 127.859 17.6906C127.859 20.08 129.707 21.2144 132.236 22.133C134.609 22.9613 135.967 23.6339 135.967 25.2603C135.967 26.5152 135.103 27.5593 132.64 27.5593Z" fill="white"/>
<path fill-rule="evenodd" clip-rule="evenodd" d="M140.712 21.6461C140.712 16.6515 144.039 13.4037 148.477 13.4037C152.793 13.4037 155.626 16.8372 155.626 21.0939C155.626 21.0939 155.626 21.616 155.595 22.0728H142.989C143.11 25.4762 145.271 27.6497 148.537 27.6497C150.789 27.6497 152.021 26.8516 153.313 25.5063L154.823 26.9771C152.879 29.1205 150.784 29.7028 148.537 29.7028C143.913 29.7028 140.707 26.5755 140.707 21.7666V21.6461H140.712ZM153.192 20.085C153.192 17.6002 151.097 15.517 148.477 15.517C145.64 15.517 143.302 17.5701 143.146 20.085H153.192Z" fill="white"/>
<path d="M158.276 15.9738H160.093V24.9892C160.093 29.1556 162.497 29.768 164.254 29.768C164.9 29.768 165.581 29.7078 165.98 29.5221V27.5593C165.395 27.6497 164.965 27.6497 164.531 27.6497C163.052 27.6497 162.375 26.9771 162.375 24.9842V15.9738H170.327V24.9892C170.327 29.1556 172.73 29.768 174.487 29.768C175.133 29.768 175.815 29.7078 176.213 29.5221V27.5593C175.628 27.6497 175.199 27.6497 174.764 27.6497C173.285 27.6497 172.609 26.9771 172.609 24.9842V15.9738H176.213V13.8605H172.609V7.94729H170.327V13.8605H162.375V7.94729H160.093V13.8605H158.276V15.9738Z" fill="white"/>
<path fill-rule="evenodd" clip-rule="evenodd" d="M186.351 13.4037C181.913 13.4037 178.586 16.6515 178.586 21.6461H178.581V21.7666C178.581 26.5755 181.787 29.7028 186.411 29.7028C188.658 29.7028 190.758 29.1205 192.697 26.9771L191.187 25.5063C189.895 26.8516 188.663 27.6497 186.411 27.6497C183.145 27.6497 180.984 25.4762 180.863 22.0728H193.469C193.499 21.616 193.499 21.0939 193.499 21.0939C193.499 16.8372 190.667 13.4037 186.351 13.4037ZM186.356 15.517C188.976 15.517 191.071 17.6002 191.071 20.085H181.025C181.181 17.5701 183.519 15.517 186.356 15.517Z" fill="white"/>
<path d="M196.988 13.8605H199.27V16.4658C200.042 14.8093 201.703 13.6146 204.046 13.6146C204.384 13.6146 204.783 13.6447 205 13.6748V16.1244C204.631 16.0341 204.106 15.9688 203.46 15.9688C201.057 15.9688 199.27 17.7157 199.27 20.3209V29.3012H196.988V13.8605Z" fill="white"/>
<path d="M10.7234 16.0491C10.7234 17.0531 11.5413 17.8612 12.5459 17.8612C13.5506 17.8612 14.3684 17.048 14.3684 16.0491C14.3684 15.0502 13.5506 14.237 12.5459 14.237C11.5413 14.232 10.7234 15.0452 10.7234 16.0491Z" fill="white"/>
</svg>
