<svg width="48" height="48" viewBox="0 0 48 48" fill="none" xmlns="http://www.w3.org/2000/svg">
<g clip-path="url(#clip0_1374_1353)">
<g clip-path="url(#clip1_1374_1353)">
<path d="M30.9088 25.1631H29.4332C29.1303 24.0589 28.1042 23.2673 26.9609 23.2673C25.8176 23.2673 24.7915 24.0589 24.4886 25.1631H23.013C22.9446 25.1631 22.8762 25.1631 22.8176 25.1826C22.8274 25.1142 22.8371 25.0458 22.8371 24.9774V22.9546C22.8371 22.9546 22.8371 22.8862 22.8371 22.8569V22.8374C22.8176 22.5247 22.544 22.1729 22.1922 22.1729C21.43 22.1729 20.8925 21.7038 20.8925 21.0295C20.8925 20.3553 21.43 19.8862 22.1922 19.8862C22.4658 19.8862 22.7883 19.7103 22.8371 19.212C22.8371 19.1729 22.8371 19.1435 22.8371 19.1045V17.0817C22.8371 16.2804 22.1824 15.6256 21.3811 15.6256H13.456C12.772 15.6159 12.1661 16.1045 12.0293 16.7787C12.0098 16.8764 12 16.9742 12 17.0719V24.9774L12.0293 26.326C12.0098 26.4237 12 26.5214 12 26.6191V34.5247C12 34.9155 12.1564 35.2771 12.43 35.5507C12.7036 35.8243 13.0749 35.9807 13.456 35.9807H21.3616C21.6645 35.9807 21.9479 35.8927 22.1922 35.7168C22.4463 35.8927 22.7199 35.9807 23.0033 35.9807H30.9088C31.7101 35.9807 32.3648 35.326 32.3648 34.5247V26.6191C32.3648 25.8178 31.7101 25.1631 30.9088 25.1631ZM13.2704 17.023C13.2899 16.9449 13.3681 16.8862 13.456 16.8862H21.3616C21.4691 16.8862 21.5472 16.9742 21.5472 17.0719V18.6745C20.3941 18.9286 19.5928 19.8764 19.5928 21.0295C19.5928 22.1826 20.3941 23.1305 21.5472 23.3846V24.9872C21.5472 25.0849 21.4691 25.1631 21.3616 25.1729H19.2606C18.9186 25.1729 18.645 25.4367 18.6254 25.769C18.5863 26.4725 18.0586 27.0002 17.3844 27.0002C16.7101 27.0002 16.1824 26.4725 16.1433 25.769C16.1238 25.4367 15.8502 25.1729 15.5081 25.1729H13.4365C13.4365 25.1729 13.3583 25.1533 13.329 25.124C13.2899 25.0849 13.2704 25.0361 13.2704 24.9872V17.023ZM22.1824 31.769C21.8306 31.769 21.5472 32.0523 21.5472 32.4041V34.5442C21.5375 34.6419 21.4593 34.7103 21.3616 34.7103H13.456C13.4072 34.7103 13.3583 34.6908 13.3192 34.6517C13.2801 34.6126 13.2606 34.5637 13.2606 34.5149V26.58C13.2801 26.5019 13.3485 26.4432 13.4267 26.4335H14.9805C15.2932 27.5279 16.2508 28.2608 17.3844 28.2608C18.5179 28.2608 19.4756 27.5279 19.7883 26.4335H21.3616C21.4593 26.4335 21.5277 26.5116 21.5375 26.6191V28.7396C21.5375 29.0914 21.8208 29.3748 22.1726 29.3748C22.9153 29.3748 23.4723 29.8927 23.4723 30.5768C23.4723 31.2608 22.9153 31.769 22.1726 31.7787L22.1824 31.769ZM31.1042 34.5247C31.1042 34.6322 31.0163 34.7103 30.9186 34.7103H23.0033C22.9544 34.7103 22.9055 34.6908 22.8665 34.6517C22.8469 34.6322 22.8371 34.6224 22.8176 34.6126C22.8176 34.5833 22.8176 34.554 22.8176 34.5247V32.9611C23.9707 32.6875 24.7329 31.7396 24.7329 30.567C24.7329 29.3944 23.9609 28.4465 22.8176 28.1729V26.5703C22.8274 26.4823 22.9055 26.4237 23.0033 26.4237H25.0261C25.2313 26.4237 25.4365 26.3162 25.5537 26.1305C25.6222 26.023 25.6612 25.9155 25.6612 25.808C25.671 25.1045 26.2573 24.5279 26.9609 24.5279C27.6645 24.5279 28.241 25.1045 28.2606 25.7983V25.8276C28.2606 25.8276 28.2801 25.896 28.2899 25.9351V25.9644C28.2899 25.9644 28.3095 26.023 28.3192 26.0426C28.4072 26.2673 28.6319 26.4139 28.8762 26.4139H28.9349C28.9349 26.4139 28.9935 26.4139 29.0033 26.4139H30.9186C31.0261 26.4139 31.1042 26.5019 31.1042 26.5996V34.5051V34.5247Z" fill="white"/>
<path d="M34.5342 12H26.6286C25.8273 12 25.1726 12.6547 25.1726 13.456V14.9316C24.0684 15.2345 23.2769 16.2606 23.2769 17.4039C23.2769 18.5472 24.0684 19.5733 25.1726 19.8762V21.3518C25.1726 22.0456 25.6612 22.6417 26.3355 22.7785C26.4332 22.798 26.5309 22.8078 26.6286 22.8078H28.7492C29.101 22.8078 29.3843 22.5244 29.3843 22.1726C29.3843 21.43 29.9023 20.873 30.5863 20.873C31.2703 20.873 31.7785 21.43 31.7883 22.1726C31.7883 22.5244 32.0716 22.8078 32.4234 22.8078H34.544C34.9348 22.8078 35.2964 22.6515 35.57 22.3779C35.8436 22.1042 36 21.7329 36 21.342V13.456C36 12.6547 35.3453 12 34.544 12H34.5342ZM34.7199 21.3616C34.7199 21.4104 34.7003 21.4593 34.6612 21.4984C34.6221 21.5375 34.5733 21.557 34.5244 21.557H32.9609C32.6971 20.4039 31.7492 19.6319 30.5668 19.6319C29.3843 19.6319 28.4365 20.4039 28.1726 21.557H26.57C26.4821 21.5375 26.4234 21.4593 26.4234 21.3713V19.3485C26.4234 19.3485 26.4234 19.2801 26.4039 19.2606V19.2117C26.4039 19.2117 26.3843 19.1531 26.3746 19.114C26.3648 19.0749 26.3453 19.0554 26.3257 19.0261L26.2085 19.0749L26.2964 18.987C26.2964 18.987 26.2671 18.9381 26.2378 18.9088C26.2182 18.8795 26.1889 18.8697 26.1694 18.8502L26.1303 18.8208C26.1303 18.8208 26.0814 18.7818 26.0423 18.7622C26.013 18.7427 25.9739 18.7427 25.9544 18.7427H25.9055C25.9055 18.7427 25.8469 18.7134 25.8078 18.7134C25.1042 18.6938 24.5277 18.1173 24.5277 17.4137C24.5277 16.7101 25.0847 16.1433 25.798 16.114H25.8273C26.1694 16.114 26.443 15.8404 26.443 15.4788C26.443 15.4202 26.443 15.3713 26.4234 15.3225V13.456C26.4234 13.3485 26.5114 13.2704 26.6091 13.2704H34.5146C34.6221 13.2704 34.7003 13.3583 34.7003 13.456V21.3616H34.7199Z" fill="white"/>
</g>
</g>
<defs>
<clipPath id="clip0_1374_1353">
<rect width="24" height="24" fill="white" transform="translate(12 12)"/>
</clipPath>
<clipPath id="clip1_1374_1353">
<rect width="23.9136" height="24" fill="white" transform="translate(12 12)"/>
</clipPath>
</defs>
</svg>
