<svg width="24" height="16" viewBox="0 0 24 16" fill="none" xmlns="http://www.w3.org/2000/svg">
<mask id="path-1-inside-1_1374_1345" fill="white">
<path d="M12.0165 3.43091C9.77213 3.43091 7.95667 5.26632 7.95667 7.50073C7.95667 9.73515 9.79208 11.5606 12.0265 11.5606C14.2609 11.5606 16.0863 9.72517 16.0863 7.49076C16.0863 5.25634 14.2509 3.43091 12.0165 3.43091V3.43091ZM12.0065 10.194C10.5302 10.194 9.32325 8.97704 9.33322 7.49076C9.33322 6.01445 10.5502 4.80747 12.0365 4.80747C13.5128 4.80747 14.7198 6.02442 14.7198 7.50073C14.7198 8.97704 13.5028 10.204 12.0065 10.194V10.194Z"/>
</mask>
<path d="M12.0165 3.43091C9.77213 3.43091 7.95667 5.26632 7.95667 7.50073C7.95667 9.73515 9.79208 11.5606 12.0265 11.5606C14.2609 11.5606 16.0863 9.72517 16.0863 7.49076C16.0863 5.25634 14.2509 3.43091 12.0165 3.43091V3.43091ZM12.0065 10.194C10.5302 10.194 9.32325 8.97704 9.33322 7.49076C9.33322 6.01445 10.5502 4.80747 12.0365 4.80747C13.5128 4.80747 14.7198 6.02442 14.7198 7.50073C14.7198 8.97704 13.5028 10.204 12.0065 10.194V10.194Z" fill="#1F1F1F" stroke="#493D7E" stroke-width="2" mask="url(#path-1-inside-1_1374_1345)"/>
<mask id="path-2-inside-2_1374_1345" fill="white">
<path d="M23.99 7.50218C23.99 7.32263 23.9302 7.13311 23.8005 6.9336C22.7731 5.31764 21.5062 3.90119 19.9701 2.74408C19.6409 2.4947 19.3117 2.27525 18.9726 2.06577C18.9426 2.04582 18.9227 2.02587 18.8928 2.0159C16.7481 0.669265 14.4439 -0.0289896 11.99 0.000935614C9.53616 -0.0289896 7.23192 0.65929 5.08728 2.0159C5.05736 2.03585 5.03741 2.0558 5.00748 2.06577C4.66833 2.27525 4.33915 2.4947 4.00998 2.74408C2.48379 3.90119 1.21696 5.31764 0.189526 6.94358C0.0598504 7.14308 0 7.32263 0 7.51216C0 7.70168 0.0598504 7.88124 0.189526 8.07076C2.11471 11.0334 4.62843 13.2977 8.02993 14.375C8.08978 14.395 8.14963 14.4049 8.20948 14.4249C9.11721 14.7241 10.0449 14.9037 10.9825 14.9735C11.0324 14.9735 11.0923 14.9835 11.1421 14.9935C11.4214 15.0134 11.7107 15.0134 12 15.0134C12.2893 15.0134 12.5686 15.0134 12.8579 14.9935C12.9077 14.9935 12.9676 14.9835 13.0175 14.9735C13.9551 14.9037 14.8828 14.7142 15.7905 14.4249C15.8504 14.4049 15.9102 14.395 15.9701 14.375C19.3716 13.2977 21.8853 11.0433 23.8105 8.07076C23.9302 7.88124 24 7.69171 24 7.51216L23.99 7.50218ZM12 13.4673C11.4115 13.4673 10.8429 13.4074 10.2943 13.3276C8.21945 12.9984 6.31421 12.1007 4.5985 10.6842C3.53117 9.80642 2.60349 8.78897 1.81546 7.65181C1.74564 7.55206 1.70574 7.47226 1.79551 7.34258C2.82294 5.88622 4.00998 4.61939 5.41646 3.64183C5.44638 3.62188 5.46633 3.60193 5.49626 3.59196C5.75561 3.41241 6.02494 3.24283 6.29426 3.0932C6.33416 3.06328 6.38404 3.04333 6.42394 3.0134C7.01247 2.68423 7.63092 2.40493 8.28928 2.16552C9.54614 1.72662 10.783 1.50717 12 1.49719C13.217 1.50717 14.4439 1.72662 15.7107 2.16552C16.3691 2.39495 16.9875 2.68423 17.5761 3.0134C17.616 3.04333 17.6658 3.06328 17.7057 3.0932C17.985 3.25281 18.2444 3.42238 18.5037 3.59196C18.5337 3.61191 18.5536 3.63186 18.5835 3.64183C19.99 4.61939 21.1771 5.88622 22.2045 7.34258C22.2943 7.47226 22.2544 7.55206 22.1845 7.65181C21.3865 8.78897 20.4688 9.80642 19.4015 10.6842C17.6858 12.0907 15.7805 12.9984 13.7057 13.3276C13.1571 13.4074 12.5885 13.4573 12 13.4673V13.4673Z"/>
</mask>
<path d="M23.99 7.50218C23.99 7.32263 23.9302 7.13311 23.8005 6.9336C22.7731 5.31764 21.5062 3.90119 19.9701 2.74408C19.6409 2.4947 19.3117 2.27525 18.9726 2.06577C18.9426 2.04582 18.9227 2.02587 18.8928 2.0159C16.7481 0.669265 14.4439 -0.0289896 11.99 0.000935614C9.53616 -0.0289896 7.23192 0.65929 5.08728 2.0159C5.05736 2.03585 5.03741 2.0558 5.00748 2.06577C4.66833 2.27525 4.33915 2.4947 4.00998 2.74408C2.48379 3.90119 1.21696 5.31764 0.189526 6.94358C0.0598504 7.14308 0 7.32263 0 7.51216C0 7.70168 0.0598504 7.88124 0.189526 8.07076C2.11471 11.0334 4.62843 13.2977 8.02993 14.375C8.08978 14.395 8.14963 14.4049 8.20948 14.4249C9.11721 14.7241 10.0449 14.9037 10.9825 14.9735C11.0324 14.9735 11.0923 14.9835 11.1421 14.9935C11.4214 15.0134 11.7107 15.0134 12 15.0134C12.2893 15.0134 12.5686 15.0134 12.8579 14.9935C12.9077 14.9935 12.9676 14.9835 13.0175 14.9735C13.9551 14.9037 14.8828 14.7142 15.7905 14.4249C15.8504 14.4049 15.9102 14.395 15.9701 14.375C19.3716 13.2977 21.8853 11.0433 23.8105 8.07076C23.9302 7.88124 24 7.69171 24 7.51216L23.99 7.50218ZM12 13.4673C11.4115 13.4673 10.8429 13.4074 10.2943 13.3276C8.21945 12.9984 6.31421 12.1007 4.5985 10.6842C3.53117 9.80642 2.60349 8.78897 1.81546 7.65181C1.74564 7.55206 1.70574 7.47226 1.79551 7.34258C2.82294 5.88622 4.00998 4.61939 5.41646 3.64183C5.44638 3.62188 5.46633 3.60193 5.49626 3.59196C5.75561 3.41241 6.02494 3.24283 6.29426 3.0932C6.33416 3.06328 6.38404 3.04333 6.42394 3.0134C7.01247 2.68423 7.63092 2.40493 8.28928 2.16552C9.54614 1.72662 10.783 1.50717 12 1.49719C13.217 1.50717 14.4439 1.72662 15.7107 2.16552C16.3691 2.39495 16.9875 2.68423 17.5761 3.0134C17.616 3.04333 17.6658 3.06328 17.7057 3.0932C17.985 3.25281 18.2444 3.42238 18.5037 3.59196C18.5337 3.61191 18.5536 3.63186 18.5835 3.64183C19.99 4.61939 21.1771 5.88622 22.2045 7.34258C22.2943 7.47226 22.2544 7.55206 22.1845 7.65181C21.3865 8.78897 20.4688 9.80642 19.4015 10.6842C17.6858 12.0907 15.7805 12.9984 13.7057 13.3276C13.1571 13.4074 12.5885 13.4573 12 13.4673V13.4673Z" fill="#1F1F1F" stroke="#493D7E" stroke-width="2" mask="url(#path-2-inside-2_1374_1345)"/>
</svg>
